<svg width="940" height="136" viewBox="0 0 940 136" fill="none" xmlns="http://www.w3.org/2000/svg">
<path fill-rule="evenodd" clip-rule="evenodd" d="M169.4 34.1H197.7C201.7 34.1 205.467 34.4333 209 35.1C212.467 35.8333 215.533 37.1 218.2 38.9C220.8 40.6334 222.867 43 224.4 46C226 49 226.8 52.7667 226.8 57.3C226.8 61.7 226.067 65.4333 224.6 68.5C223.133 71.5 221.167 73.9 218.7 75.7C216.167 77.5 213.167 78.7667 209.7 79.5C206.233 80.3 202.5 80.7 198.5 80.7H186.2V110.4H169.4V34.1ZM186.2 66.5H197.4C198.933 66.5 200.4 66.3666 201.8 66.1C203.2 65.7666 204.467 65.2666 205.6 64.6C206.667 63.9333 207.567 63 208.3 61.8C208.967 60.6 209.3 59.1 209.3 57.3C209.3 55.3667 208.833 53.8 207.9 52.6C207.033 51.4666 205.9 50.5667 204.5 49.9C203.1 49.2334 201.533 48.8 199.8 48.6C198.067 48.4666 196.4 48.4 194.8 48.4H186.2V66.5Z" fill="#428FCB"/>
<path d="M251.5 28.9V65.1H251.7C252.033 64.1 252.633 63.1 253.5 62.1C254.367 61.1 255.4 60.2 256.6 59.4C257.867 58.6 259.3 57.9667 260.9 57.5C262.567 56.9667 264.367 56.7 266.3 56.7C270.433 56.7 273.767 57.3333 276.3 58.6C278.767 59.8666 280.7 61.6 282.1 63.8C283.567 66.0667 284.533 68.7 285 71.7C285.533 74.7 285.8 77.9667 285.8 81.5V110.4H269.6V84.8C269.6 83.2667 269.533 81.7 269.4 80.1C269.333 78.4333 269 76.9333 268.4 75.6C267.867 74.2 267.067 73.0667 266 72.2C264.867 71.4 263.267 71 261.2 71C259.067 71 257.367 71.3666 256.1 72.1C254.833 72.8333 253.833 73.8333 253.1 75.1C252.433 76.3666 252 77.8 251.8 79.4C251.6 80.9334 251.5 82.5667 251.5 84.3V110.4H235.3V28.9H251.5Z" fill="#428FCB"/>
<path d="M296.1 41.5C296.1 38.9 297.033 36.7 298.9 34.9C300.7 33.0334 302.9 32.1 305.5 32.1C308.1 32.1 310.3 33.0334 312.1 34.9C313.967 36.7 314.9 38.9 314.9 41.5C314.9 44.1 313.967 46.3 312.1 48.1C310.3 49.9666 308.1 50.9 305.5 50.9C302.9 50.9 300.7 49.9666 298.9 48.1C297.033 46.3 296.1 44.1 296.1 41.5ZM297.4 58H313.6V110.4H297.4V58Z" fill="#428FCB"/>
<path fill-rule="evenodd" clip-rule="evenodd" d="M380.3 110.4H365.4V103.5H365.2C364.533 104.433 363.667 105.4 362.6 106.4C361.6 107.333 360.4 108.2 359 109C357.533 109.8 355.967 110.467 354.3 111C352.633 111.467 350.9 111.7 349.1 111.7C345.233 111.7 341.7 111.033 338.5 109.7C335.367 108.367 332.667 106.5 330.4 104.1C328.133 101.7 326.367 98.8333 325.1 95.5C323.9 92.2333 323.3 88.6333 323.3 84.7C323.3 81.0333 323.867 77.5 325 74.1C326.067 70.7666 327.633 67.8 329.7 65.2C331.767 62.6667 334.267 60.6 337.2 59C340.133 57.4667 343.467 56.7 347.2 56.7C350.6 56.7 353.767 57.2333 356.7 58.3C359.633 59.3 362.033 61.0666 363.9 63.6H364.1V28.9H380.3V110.4ZM365.4 84.2C365.4 80.2 364.267 77 362 74.6C359.733 72.1333 356.533 70.9 352.4 70.9C348.333 70.9 345.167 72.1333 342.9 74.6C340.633 77 339.5 80.2 339.5 84.2C339.5 88.1333 340.633 91.3333 342.9 93.8C345.167 96.2 348.333 97.4 352.4 97.4C356.533 97.4 359.733 96.2 362 93.8C364.267 91.3333 365.4 88.1333 365.4 84.2Z" fill="#428FCB"/>
<path fill-rule="evenodd" clip-rule="evenodd" d="M442.8 101.4C440.2 104.667 436.933 107.2 433 109C429.067 110.8 424.967 111.7 420.7 111.7C416.7 111.7 412.9 111.067 409.3 109.8C405.767 108.467 402.7 106.6 400.1 104.2C397.433 101.8 395.333 98.9 393.8 95.5C392.333 92.1667 391.6 88.4 391.6 84.2C391.6 80.0667 392.333 76.3 393.8 72.9C395.333 69.5 397.433 66.6 400.1 64.2C402.7 61.8 405.767 59.9667 409.3 58.7C412.9 57.3667 416.7 56.7 420.7 56.7C424.433 56.7 427.833 57.3667 430.9 58.7C433.967 59.9667 436.567 61.8 438.7 64.2C440.833 66.6 442.467 69.5 443.6 72.9C444.733 76.3 445.3 80.0667 445.3 84.2V89.3H407.8C408.4 92.3667 409.8 94.8333 412 96.7C414.133 98.5 416.8 99.4 420 99.4C422.6 99.4 424.833 98.8333 426.7 97.7C428.5 96.5 430.1 94.9666 431.5 93.1L442.8 101.4ZM429.1 78.3C429.167 75.5667 428.267 73.2333 426.4 71.3C424.533 69.3667 422.133 68.4 419.2 68.4C417.4 68.4 415.8 68.6667 414.4 69.2C413.067 69.8 411.9 70.5334 410.9 71.4C409.967 72.3334 409.233 73.4 408.7 74.6C408.1 75.7333 407.767 76.9667 407.7 78.3H429.1Z" fill="#428FCB"/>
<path d="M455.3 28.9H471.5V110.4H455.3V28.9Z" fill="#428FCB"/>
<path d="M482.1 41.5C482.1 38.9 483 36.7 484.8 34.9C486.667 33.0334 488.9 32.1 491.5 32.1C494.1 32.1 496.3 33.0334 498.1 34.9C499.967 36.7 500.9 38.9 500.9 41.5C500.9 44.1 499.967 46.3 498.1 48.1C496.3 49.9666 494.1 50.9 491.5 50.9C488.9 50.9 486.667 49.9666 484.8 48.1C483 46.3 482.1 44.1 482.1 41.5ZM483.4 58H499.6V110.4H483.4V58Z" fill="#428FCB"/>
<path d="M540.9 73.4C538.5 70.4667 535.367 69 531.5 69C530.1 69 528.767 69.3333 527.5 70C526.233 70.6667 525.6 71.7667 525.6 73.3C525.6 74.6333 526.267 75.6 527.6 76.2C528.933 76.8 530.6 77.3333 532.6 77.8C534.667 78.2667 536.867 78.7667 539.2 79.3C541.533 79.8333 543.733 80.6667 545.8 81.8C547.867 83 549.567 84.5667 550.9 86.5C552.233 88.5 552.9 91.1667 552.9 94.5C552.9 97.8333 552.133 100.6 550.6 102.8C549.133 105 547.267 106.767 545 108.1C542.667 109.433 540.067 110.367 537.2 110.9C534.333 111.433 531.5 111.7 528.7 111.7C525.033 111.7 521.333 111.2 517.6 110.2C513.867 109.133 510.7 107.267 508.1 104.6L517.9 93.7C519.433 95.5667 521.1 97 522.9 98C524.767 98.9333 526.9 99.4 529.3 99.4C531.167 99.4 532.867 99.1333 534.4 98.6C535.933 98.0666 536.7 97.1 536.7 95.7C536.7 94.3 536.033 93.2666 534.7 92.6C533.367 91.9333 531.667 91.3667 529.6 90.9C527.533 90.4334 525.333 89.9 523 89.3C520.667 88.7667 518.467 87.9667 516.4 86.9C514.4 85.8334 512.733 84.3 511.4 82.3C510.067 80.3667 509.4 77.7334 509.4 74.4C509.4 71.3334 510.033 68.6667 511.3 66.4C512.567 64.2 514.2 62.3667 516.2 60.9C518.267 59.5 520.633 58.4333 523.3 57.7C525.967 57.0333 528.667 56.7 531.4 56.7C534.867 56.7 538.367 57.2 541.9 58.2C545.367 59.2 548.333 61 550.8 63.6L540.9 73.4Z" fill="#428FCB"/>
<path d="M645.1 53.9C643.433 51.9 641.4 50.3667 639 49.3C636.6 48.2333 633.8 47.7 630.6 47.7C627.467 47.7 624.567 48.3 621.9 49.5C619.167 50.7 616.8 52.4 614.8 54.6C612.867 56.8 611.333 59.4 610.2 62.4C609.067 65.4667 608.5 68.7333 608.5 72.2C608.5 75.8 609.067 79.1 610.2 82.1C611.333 85.1 612.867 87.7 614.8 89.9C616.733 92.1 619 93.8 621.6 95C624.267 96.2 627.1 96.8 630.1 96.8C633.567 96.8 636.633 96.1 639.3 94.7C641.967 93.2333 644.167 91.2 645.9 88.6L659.9 99.1C656.633 103.633 652.533 106.967 647.6 109.1C642.6 111.3 637.5 112.4 632.3 112.4C626.3 112.4 620.8 111.467 615.8 109.6C610.733 107.733 606.367 105.033 602.7 101.5C599.033 98.0333 596.167 93.8334 594.1 88.9C592.1 83.9 591.1 78.3333 591.1 72.2C591.1 66.1333 592.1 60.6 594.1 55.6C596.167 50.6666 599.033 46.4667 602.7 43C606.367 39.4667 610.733 36.7667 615.8 34.9C620.8 33.0334 626.3 32.1 632.3 32.1C634.433 32.1 636.667 32.3 639 32.7C641.333 33.1 643.633 33.7333 645.9 34.6C648.167 35.4666 650.333 36.6333 652.4 38.1C654.533 39.5 656.4 41.2333 658 43.3L645.1 53.9Z" fill="#24346D"/>
<path fill-rule="evenodd" clip-rule="evenodd" d="M699.9 103.9H699.7C697.9 106.7 695.5 108.7 692.5 109.9C689.5 111.1 686.367 111.7 683.1 111.7C680.633 111.7 678.267 111.367 676 110.7C673.733 110.033 671.733 109 670 107.6C668.267 106.267 666.9 104.6 665.9 102.6C664.9 100.533 664.4 98.1667 664.4 95.5C664.4 92.5 664.967 89.9667 666.1 87.9C667.233 85.8334 668.733 84.1 670.6 82.7C672.533 81.3667 674.7 80.3 677.1 79.5C679.567 78.7667 682.1 78.2334 684.7 77.9C687.367 77.5 690 77.2667 692.6 77.2C695.267 77.1333 697.7 77.1 699.9 77.1C699.9 74.2333 698.867 71.9667 696.8 70.3C694.733 68.5667 692.3 67.7 689.5 67.7C686.833 67.7 684.433 68.2667 682.3 69.4C680.1 70.5334 678.133 72.0667 676.4 74L667.8 65.1C670.8 62.3 674.3 60.2 678.3 58.8C682.367 57.4 686.533 56.7 690.8 56.7C695.6 56.7 699.5 57.3 702.5 58.5C705.567 59.7 708.033 61.4333 709.9 63.7C711.7 66.0333 712.967 68.8667 713.7 72.2C714.433 75.5333 714.8 79.4 714.8 83.8V110.4H699.9V103.9ZM695.9 87.5C694.7 87.5 693.167 87.5667 691.3 87.7C689.5 87.8333 687.733 88.1333 686 88.6C684.333 89.1333 682.9 89.9 681.7 90.9C680.5 91.9 679.9 93.3 679.9 95.1C679.9 97.0333 680.733 98.4667 682.4 99.4C684.067 100.333 685.8 100.8 687.6 100.8C689.2 100.8 690.733 100.6 692.2 100.2C693.667 99.7333 694.967 99.1 696.1 98.3C697.233 97.5 698.167 96.5 698.9 95.3C699.567 94.1 699.9 92.6667 699.9 91V87.5H695.9Z" fill="#24346D"/>
<path fill-rule="evenodd" clip-rule="evenodd" d="M726.4 58H741.3V64.9H741.5C742.167 63.9667 743.033 63.0333 744.1 62.1C745.1 61.1 746.3 60.2 747.7 59.4C749.1 58.6 750.633 57.9667 752.3 57.5C753.967 56.9667 755.733 56.7 757.6 56.7C761.467 56.7 765 57.3667 768.2 58.7C771.333 60.0333 774.033 61.9 776.3 64.3C778.567 66.7 780.333 69.5667 781.6 72.9C782.8 76.2334 783.4 79.8667 783.4 83.8C783.4 87.4667 782.833 90.9667 781.7 94.3C780.567 97.6333 779 100.6 777 103.2C774.933 105.8 772.433 107.867 769.5 109.4C766.567 110.933 763.2 111.7 759.4 111.7C756.067 111.7 752.933 111.2 750 110.2C747.067 109.133 744.667 107.333 742.8 104.8H742.6V135H726.4V58ZM741.3 84.2C741.3 88.2 742.433 91.4 744.7 93.8C746.967 96.2667 750.167 97.5 754.3 97.5C758.367 97.5 761.533 96.2667 763.8 93.8C766.067 91.4 767.2 88.2 767.2 84.2C767.2 80.2667 766.067 77.0666 763.8 74.6C761.533 72.2 758.367 71 754.3 71C750.167 71 746.967 72.2 744.7 74.6C742.433 77.0666 741.3 80.2667 741.3 84.2Z" fill="#24346D"/>
<path d="M791.8 41.5C791.8 38.9 792.733 36.7 794.6 34.9C796.4 33.0334 798.6 32.1 801.2 32.1C803.8 32.1 806 33.0334 807.8 34.9C809.667 36.7 810.6 38.9 810.6 41.5C810.6 44.1 809.667 46.3 807.8 48.1C806 49.9666 803.8 50.9 801.2 50.9C798.6 50.9 796.4 49.9666 794.6 48.1C792.733 46.3 791.8 44.1 791.8 41.5ZM793.1 58H809.3V110.4H793.1V58Z" fill="#24346D"/>
<path d="M856.6 71H842.4V88.4C842.4 89.8667 842.467 91.2 842.6 92.4C842.733 93.5334 843.067 94.5334 843.6 95.4C844.067 96.2667 844.833 96.9334 845.9 97.4C846.967 97.8667 848.367 98.1 850.1 98.1C850.967 98.1 852.1 98.0334 853.5 97.9C854.9 97.7 855.933 97.2666 856.6 96.6V110.1C854.8 110.767 852.933 111.2 851 111.4C849.067 111.6 847.167 111.7 845.3 111.7C842.567 111.7 840.067 111.433 837.8 110.9C835.467 110.3 833.433 109.367 831.7 108.1C829.967 106.833 828.633 105.2 827.7 103.2C826.7 101.2 826.2 98.7667 826.2 95.9V71H815.9V58H826.2V42.5H842.4V58H856.6V71Z" fill="#24346D"/>
<path fill-rule="evenodd" clip-rule="evenodd" d="M897.7 103.9H897.5C895.7 106.7 893.333 108.7 890.4 109.9C887.4 111.1 884.233 111.7 880.9 111.7C878.433 111.7 876.067 111.367 873.8 110.7C871.533 110.033 869.567 109 867.9 107.6C866.167 106.267 864.8 104.6 863.8 102.6C862.733 100.533 862.2 98.1667 862.2 95.5C862.2 92.5 862.767 89.9667 863.9 87.9C865.033 85.8334 866.567 84.1 868.5 82.7C870.367 81.3667 872.533 80.3 875 79.5C877.4 78.7667 879.933 78.2334 882.6 77.9C885.2 77.5 887.833 77.2667 890.5 77.2C893.1 77.1333 895.5 77.1 897.7 77.1C897.7 74.2333 896.7 71.9667 894.7 70.3C892.633 68.5667 890.2 67.7 887.4 67.7C884.733 67.7 882.3 68.2667 880.1 69.4C877.9 70.5334 875.933 72.0667 874.2 74L865.6 65.1C868.6 62.3 872.133 60.2 876.2 58.8C880.2 57.4 884.367 56.7 888.7 56.7C893.433 56.7 897.333 57.3 900.4 58.5C903.467 59.7 905.9 61.4333 907.7 63.7C909.567 66.0333 910.833 68.8667 911.5 72.2C912.233 75.5333 912.6 79.4 912.6 83.8V110.4H897.7V103.9ZM893.7 87.5C892.5 87.5 891 87.5667 889.2 87.7C887.333 87.8333 885.567 88.1333 883.9 88.6C882.167 89.1333 880.733 89.9 879.6 90.9C878.4 91.9 877.8 93.3 877.8 95.1C877.8 97.0333 878.633 98.4667 880.3 99.4C881.9 100.333 883.6 100.8 885.4 100.8C887 100.8 888.533 100.6 890 100.2C891.467 99.7333 892.8 99.1 894 98.3C895.133 97.5 896.033 96.5 896.7 95.3C897.367 94.1 897.7 92.6667 897.7 91V87.5H893.7Z" fill="#24346D"/>
<path d="M923 28.9H939.2V110.4H923V28.9Z" fill="#24346D"/>
<path d="M57 78.8C57 76.7 55.4 74.9 53.3 74.6C43.7 73.5 34.7999 70.4 27.8999 65.5C19.7999 59.8 15.3 52.4 15.3 44.7C15.3 37 19.7999 29.7 27.8999 24C36.6999 17.8 48.5001 14.4 61.1001 14.4C62.6001 14.4 63.8 13.2 63.8 11.8V3.09998C63.8 1.59998 62.6001 0.5 61.1001 0.5C45.4001 0.5 30.6 4.80001 19.3 12.7C13.6 16.7 9.2 21.5 6 26.7C2.6 32.4 0.800049 38.5 0.800049 44.7C0.800049 51 2.6 57.1 6 62.7C9.2 68 13.6 72.7 19.3 76.7C28.5 83.2 39.9999 87.2 52.3999 88.5C54.7999 88.8 57 86.9 57 84.4V78.8Z" fill="#428FCB"/>
<path d="M126.2 45.7C123 40.2 118.5 35.3 112.9 31.2C101.6 22.9 86.8001 18.4 71.1001 18.4C71.1001 18.4 71.0667 18.4 71 18.4C69.6 18.4 68.3999 19.6 68.3999 21.1V30.2C68.3999 31.7 69.6001 32.9 71.1001 32.9C83.7001 32.9 95.5 36.4 104.3 42.9C112.4 48.8 116.9 56.5 116.9 64.5C116.9 72.5 112.4 80.1 104.3 86.1C96.6 91.7 86.5001 95.2 75.6001 95.9V43.9C75.6001 40.6 72.9 37.9 69.7 37.9H67.1001C63.8001 37.9 61.1001 40.6 61.1001 43.9V131.3C61.1001 133.6 62.9999 135.5 65.3999 135.5H71.3C73.7 135.5 75.6001 133.6 75.6001 131.3V110.4C89.6001 109.6 102.7 105.2 112.9 97.8C118.5 93.6 123 88.7 126.2 83.2C129.6 77.3 131.4 71 131.4 64.5C131.4 57.9 129.6 51.6 126.2 45.7Z" fill="#24346D"/>
</svg>
